<?xml version="1.0" encoding="utf-8"?>
<!-- Generator: Adobe Illustrator 19.0.0, SVG Export Plug-In . SVG Version: 6.00 Build 0)  -->
<svg version="1.1" id="Слой_2" xmlns="http://www.w3.org/2000/svg" xmlns:xlink="http://www.w3.org/1999/xlink" x="0px" y="0px"
	 viewBox="0 0 82 82" style="enable-background:new 0 0 82 82;" xml:space="preserve">
<style type="text/css">
	.st0{fill:#474747;}
</style>
<path id="XMLID_136_" class="st0" d="M41,0C18.4,0,0,18.4,0,41s18.4,41,41,41c22.6,0,41-18.4,41-41S63.6,0,41,0z M41,76.5
	c-19.7,0-35.6-15.9-35.6-35.6C5.4,21.2,21.3,5.2,41,5.2c19.7,0,35.6,15.9,35.6,35.6C76.6,60.6,60.7,76.5,41,76.5z"/>
<path id="XMLID_135_" class="st0" d="M34.5,55.6H32c-1.6,0-3-1.3-3-3V30.2c0-1.7,1.4-3,3-3h2.5c1.7,0,3,1.3,3,3v22.4
	C37.5,54.2,36.1,55.6,34.5,55.6z"/>
<path id="XMLID_134_" class="st0" d="M51.5,55.6H49c-1.7,0-3-1.3-3-3V30.2c0-1.7,1.3-3,3-3h2.5c1.7,0,3,1.3,3,3v22.4
	C54.5,54.2,53.1,55.6,51.5,55.6z"/>
</svg>
