<?xml version="1.0" encoding="utf-8"?>
<!-- Generator: Adobe Illustrator 19.0.0, SVG Export Plug-In . SVG Version: 6.00 Build 0)  -->
<svg version="1.1" id="Слой_1" xmlns="http://www.w3.org/2000/svg" xmlns:xlink="http://www.w3.org/1999/xlink" x="0px" y="0px"
	 viewBox="0 0 82 82" style="enable-background:new 0 0 82 82;" xml:space="preserve">
<style type="text/css">
	.st0{fill:#474747;}
</style>
<path class="st0" d="M41,0C18.4,0,0,18.4,0,41s18.4,41,41,41c22.6,0,41-18.4,41-41S63.6,0,41,0z M41,76.5
	c-19.7,0-35.6-15.9-35.6-35.6C5.4,21.2,21.3,5.2,41,5.2c19.7,0,35.6,15.9,35.6,35.6C76.6,60.6,60.7,76.5,41,76.5z"/>
<g>
	<path id="XMLID_38_" class="st0" d="M34.9,54.7c-1.4,0.8-2.6,0.1-2.6-1.5l0-9.1c0-1.7,0-4.3,0-6l0-9.1c0-1.6,1.2-2.3,2.6-1.5
		l8.4,4.7c1.4,0.8,3.8,2.1,5.2,2.9l8.4,4.7c1.4,0.8,1.4,2.1,0,2.9l-8.4,4.7c-1.4,0.8-3.8,2.1-5.2,2.9L34.9,54.7z"/>
</g>
</svg>
