<?xml version="1.0" encoding="utf-8"?>
<!-- Generator: Adobe Illustrator 19.0.0, SVG Export Plug-In . SVG Version: 6.00 Build 0)  -->
<svg version="1.1" id="Слой_3" xmlns="http://www.w3.org/2000/svg" xmlns:xlink="http://www.w3.org/1999/xlink" x="0px" y="0px"
	 viewBox="0 0 82 82" style="enable-background:new 0 0 82 82;" xml:space="preserve">
<style type="text/css">
	.st0{fill:#484748;}
	.st1{fill:#474747;}
</style>
<g id="XMLID_36_">
	<path class="st0" d="M41,0C18.4,0,0,18.4,0,41s18.4,41,41,41c22.6,0,41-18.4,41-41S63.6,0,41,0z M41,76.5
		c-19.7,0-35.6-15.9-35.6-35.6C5.4,21.2,21.3,5.3,41,5.3c19.7,0,35.6,15.9,35.6,35.6C76.6,60.6,60.7,76.5,41,76.5z"/>
	<g id="XMLID_134_">
		<path id="XMLID_154_" class="st1" d="M29.9,32.6c-1.1,1.2-1.7,2.4-1.3,2.7c0.4,0.3,0.7,2.8,0.7,4.4v3.5c0,1.6-0.1,3.3-0.2,3.7
			c-0.1,0.4,0,2,1.1,3.2l7.2,7.7c1.1,1.2,2.1,0.8,2.1-0.8l0-13.1c0-1.7,0-4.4,0-6l0-12.8c0-1.6-0.9-2-2-0.8L29.9,32.6z"/>
	</g>
	<path id="XMLID_133_" class="st1" d="M29.3,46.2v-9.5c0-0.9-0.6-1.7-1.4-1.9c-0.2-0.1-0.4-0.1-0.6-0.1h-5.2c-1.1,0-2,0.9-2,2v9.5
		c0,1.1,0.9,2,2,2h5.2c0.3,0,0.6-0.1,0.8-0.2C28.8,47.7,29.3,47,29.3,46.2z"/>
	<g id="XMLID_38_">
		<path id="XMLID_147_" class="st0" d="M62.7,42c1-1,0.8-2.7-0.4-3.9l-1.4-1.4c-1.2-1.2-2.9-1.3-3.9-0.4c-1,1-2.5,1-3.5,0
			c-1-1-2.7-0.8-3.9,0.4l-1.4,1.4C47.1,39.3,47,41,47.9,42c1,1,1,2.5,0,3.5c-1,1-0.8,2.7,0.4,3.9l1.4,1.4c1.2,1.2,2.9,1.3,3.9,0.4
			c1-1,2.5-1,3.5,0c1,1,2.7,0.8,3.9-0.4l1.4-1.4c1.2-1.2,1.3-2.9,0.4-3.9C61.8,44.5,61.8,43,62.7,42z"/>
	</g>
</g>
</svg>
