<?xml version="1.0" encoding="utf-8"?>
<!-- Generator: Adobe Illustrator 19.0.0, SVG Export Plug-In . SVG Version: 6.00 Build 0)  -->
<svg version="1.1" id="Слой_3" xmlns="http://www.w3.org/2000/svg" xmlns:xlink="http://www.w3.org/1999/xlink" x="0px" y="0px"
	 viewBox="0 0 82 82" style="enable-background:new 0 0 82 82;" xml:space="preserve">
<style type="text/css">
	.st0{fill:#474747;}
</style>
<g id="XMLID_36_">
	<path class="st0" d="M41,0C18.4,0,0,18.4,0,41s18.4,41,41,41c22.6,0,41-18.4,41-41S63.6,0,41,0z M41,76.5
		c-19.7,0-35.6-15.9-35.6-35.6C5.4,21.2,21.3,5.3,41,5.3c19.7,0,35.6,15.9,35.6,35.6C76.6,60.6,60.7,76.5,41,76.5z"/>
	<g>
		<g id="XMLID_135_">
			<path id="XMLID_157_" class="st0" d="M39.5,44c0-1.7,0-4.4,0-6l0-12.8c0-1.6-0.9-2-2-0.8l-7.5,8.2c-1.1,1.2-1.7,2.4-1.3,2.7
				s0.7,2.8,0.7,4.4v3.5c0,1.6-0.1,3.3-0.2,3.7c-0.1,0.4,0,2,1.1,3.2l7.2,7.7c1.1,1.2,2.1,0.8,2.1-0.8L39.5,44z"/>
		</g>
		<path id="XMLID_134_" class="st0" d="M29.3,46.2v-9.5c0-0.9-0.6-1.7-1.4-1.9c-0.2-0.1-0.4-0.1-0.6-0.1h-5.2c-1.1,0-2,0.9-2,2v9.5
			c0,1.1,0.9,2,2,2h5.2c0.3,0,0.6-0.1,0.8-0.2C28.8,47.7,29.3,47,29.3,46.2z"/>
	</g>
	<g id="XMLID_133_">
		<path id="XMLID_152_" class="st0" d="M52,50.4c-1,1.3-2.8,1.6-4,0.5c-1.3-1.1-1.6-3-0.6-4.3c0,0,0,0,0.5-1.3
			c0.5-1.2,1.6-4.3,0.5-7.6c-0.4-1.2-0.4-1.2-0.4-1.2c-0.9-1.2-0.7-3.1,0.4-4.3l0,0c1.2-1.2,3-1,4,0.3c0,0,0.9,1.2,1.7,3.2
			c1.9,5.4,0.1,10.2-0.5,11.8C52.7,49.4,52,50.4,52,50.4z"/>
	</g>
	<g id="XMLID_38_">
		<path id="XMLID_151_" class="st0" d="M60,55.2c-1,1.3-2.9,1.5-4.1,0.4l-1.5-1.3c-1.3-1.1-1.5-3-0.5-4.2c0,0,0,0,0.8-1.2
			c1.1-1.8,1.7-2.8,2.1-4.2c0.7-2.7,0.1-5.1-0.2-6.3c-0.2-0.6-0.6-2.2-1.7-4c-0.7-1.2-0.7-1.2-0.7-1.2c-1.1-1.2-1-3.1,0.1-4.3
			l1.4-1.4c1.1-1.2,3-1.2,4.1,0c0,0,0.9,1,2,2.8c1.6,2.6,2.3,5,2.6,6.1c0.4,1.5,1.5,5.7,0.1,10.4c-0.7,2.5-1.8,4.3-3,6.3
			C60.4,54.7,60,55.2,60,55.2z"/>
	</g>
</g>
</svg>
