<?xml version="1.0" encoding="utf-8"?>
<!-- Generator: Adobe Illustrator 19.0.0, SVG Export Plug-In . SVG Version: 6.00 Build 0)  -->
<svg version="1.1" id="Слой_3" xmlns="http://www.w3.org/2000/svg" xmlns:xlink="http://www.w3.org/1999/xlink" x="0px" y="0px"
	 viewBox="-256 379.9 82 82" style="enable-background:new -256 379.9 82 82;" xml:space="preserve">
<style type="text/css">
	.st0{fill:#474747;}
</style>
<g>
	<path class="st0" d="M-204,435.5h-22.4c-1.7,0-3-1.4-3-3v-22.4c0-1.6,1.3-3,3-3h22.4c1.7,0,3,1.4,3,3v22.4
		C-201,434.2-202.3,435.5-204,435.5z"/>
	<path class="st0" d="M-215,379.9c-22.6,0-41,18.4-41,41c0,22.6,18.4,41,41,41s41-18.4,41-41C-174,398.3-192.3,379.9-215,379.9z
		 M-215,456.4c-19.6,0-35.6-15.9-35.6-35.6c0-19.7,15.9-35.6,35.6-35.6s35.6,15.9,35.6,35.6C-179.3,440.5-195.3,456.4-215,456.4z"/>
</g>
</svg>
